<svg xmlns="http://www.w3.org/2000/svg" viewBox="0 0 300 600" role="img" aria-labelledby="title desc">
  <title id="title">The Husband</title>
  <desc id="desc">A centered storybook-style medieval nobleman with a burgundy cloak and gold tunic.</desc>
  <defs>
    <linearGradient id="cloak" x1="0" x2="1">
      <stop offset="0" stop-color="#5f2030"/>
      <stop offset="1" stop-color="#7e3041"/>
    </linearGradient>
    <linearGradient id="tunic" x1="0" x2="1">
      <stop offset="0" stop-color="#dcc57a"/>
      <stop offset="1" stop-color="#b88f3c"/>
    </linearGradient>
  </defs>
  <ellipse cx="150" cy="575" rx="64" ry="16" fill="#000" opacity="0.14"/>
  <path d="M95 162c14-23 33-35 55-35s41 12 55 35l24 73-18 13-26-49v242h-70V199l-26 49-18-13Z" fill="url(#cloak)"/>
  <path d="M118 166c8-16 19-24 32-24s24 8 32 24v270h-64Z" fill="url(#tunic)"/>
  <path d="M132 166h36v270h-36Z" fill="#a87b2f" opacity="0.45"/>
  <path d="M123 438h22v106h-30l8-106Z" fill="#604836"/>
  <path d="M155 438h22l8 106h-30Z" fill="#6f5542"/>
  <path d="M114 542h42v21h-49c-9 0-11-11-4-16Z" fill="#37241b"/>
  <path d="M145 542h44c10 2 11 18-2 18h-42Z" fill="#37241b"/>
  <path d="M103 221c-14 30-32 55-56 77" fill="none" stroke="#6b4130" stroke-width="12" stroke-linecap="round"/>
  <path d="M197 221c14 30 32 55 56 77" fill="none" stroke="#6b4130" stroke-width="12" stroke-linecap="round"/>
  <circle cx="150" cy="108" r="31" fill="#efcfaf"/>
  <path d="M116 99c7-28 24-45 52-49 29-4 52 8 67 35-24-7-48-8-72-2-20 5-36 11-47 16Z" fill="#57382a"/>
  <path d="M117 98c13 16 27 24 42 27-8-12-8-27-1-45-18 2-32 8-41 18Z" fill="#57382a"/>
  <path d="M184 82c24 9 39 26 45 52-21-6-37-18-49-36Z" fill="#57382a"/>
  <path d="M136 113c0 5-3 9-7 9s-7-4-7-9 3-8 7-8 7 3 7 8Z" fill="#362520"/>
  <path d="M178 113c0 5-3 9-7 9s-7-4-7-9 3-8 7-8 7 3 7 8Z" fill="#362520"/>
  <path d="M133 130c9 8 20 12 32 12s23-4 32-12" fill="none" stroke="#9d6b4b" stroke-width="4.5" stroke-linecap="round"/>
  <path d="M145 139h10l8 17h-26Z" fill="#dcb08a"/>
  <path d="M121 251h58" stroke="#d8c079" stroke-width="7" stroke-linecap="round"/>
  <circle cx="150" cy="282" r="11" fill="#6e2430" stroke="#e2c26d" stroke-width="4"/>
</svg>
