<svg xmlns="http://www.w3.org/2000/svg" viewBox="0 0 1000 1000" role="img" aria-labelledby="title desc">
  <title id="title">Illuminated border</title>
  <desc id="desc">A medieval manuscript border with red, green, and gold ornamentation.</desc>
  <rect x="34" y="34" width="932" height="932" rx="42" fill="none" stroke="#d4b05f" stroke-width="20"/>
  <rect x="64" y="64" width="872" height="872" rx="28" fill="none" stroke="#6b1f2b" stroke-width="10"/>
  <g fill="none" stroke-linecap="round" stroke-linejoin="round">
    <path d="M126 168c74-70 138-93 192-68 15 67-10 131-77 192-56 12-110-7-165-55" stroke="#284330" stroke-width="18"/>
    <path d="M874 168c-74-70-138-93-192-68-15 67 10 131 77 192 56 12 110-7 165-55" stroke="#284330" stroke-width="18"/>
    <path d="M126 832c74 70 138 93 192 68 15-67-10-131-77-192-56-12-110 7-165 55" stroke="#284330" stroke-width="18"/>
    <path d="M874 832c-74 70-138 93-192 68-15-67 10-131 77-192 56-12 110 7 165 55" stroke="#284330" stroke-width="18"/>
    <path d="M143 142c36 44 73 61 112 52 11-39 0-77-34-115" stroke="#d4b05f" stroke-width="14"/>
    <path d="M857 142c-36 44-73 61-112 52-11-39 0-77 34-115" stroke="#d4b05f" stroke-width="14"/>
    <path d="M143 858c36-44 73-61 112-52 11 39 0 77-34 115" stroke="#d4b05f" stroke-width="14"/>
    <path d="M857 858c-36-44-73-61-112-52-11 39 0 77 34 115" stroke="#d4b05f" stroke-width="14"/>
  </g>
  <g fill="#d4b05f">
    <circle cx="500" cy="96" r="24"/>
    <circle cx="500" cy="904" r="24"/>
    <circle cx="96" cy="500" r="24"/>
    <circle cx="904" cy="500" r="24"/>
  </g>
  <g fill="none" stroke="#6b1f2b" stroke-width="12" stroke-linecap="round">
    <path d="M239 90c62 36 142 48 261 48s199-12 261-48"/>
    <path d="M239 910c62-36 142-48 261-48s199 12 261 48"/>
    <path d="M90 239c36 62 48 142 48 261s-12 199-48 261"/>
    <path d="M910 239c-36 62-48 142-48 261s12 199 48 261"/>
  </g>
</svg>
