<svg xmlns="http://www.w3.org/2000/svg" viewBox="0 0 800 1000" role="img" aria-labelledby="title desc">
  <title id="title">Parchment texture</title>
  <desc id="desc">An aged parchment with warm stains and deckled edges.</desc>
  <defs>
    <linearGradient id="paper" x1="0" x2="0" y1="0" y2="1">
      <stop offset="0" stop-color="#f5e9c7"/>
      <stop offset="0.52" stop-color="#ead9ac"/>
      <stop offset="1" stop-color="#ddc493"/>
    </linearGradient>
    <filter id="grain" x="-10%" y="-10%" width="120%" height="120%">
      <feTurbulence type="fractalNoise" baseFrequency="0.85" numOctaves="2" seed="8"/>
      <feColorMatrix type="saturate" values="0"/>
      <feComponentTransfer>
        <feFuncA type="table" tableValues="0 0.07"/>
      </feComponentTransfer>
    </filter>
  </defs>
  <rect width="800" height="1000" rx="26" fill="url(#paper)"/>
  <rect width="800" height="1000" rx="26" fill="#6a4620" opacity="0.07" filter="url(#grain)"/>
  <path d="M34 46c78-31 168-27 276-14 180 22 301 20 452-8v72c-148 17-295 21-450 0-118-16-205-17-278 11Z" fill="#fff7d8" opacity="0.28"/>
  <path d="M59 919c93 23 185 31 299 29 165-4 284-20 383-54v64c-97 24-215 38-369 42-122 2-220-12-313-46Z" fill="#b98751" opacity="0.13"/>
  <path d="M42 213c30-19 67-25 111-18 22 51 19 104-9 159-42 14-79 11-111-10-29-49-26-94 9-131Z" fill="#b87d4b" opacity="0.12"/>
  <path d="M642 118c44-21 90-17 137 10 25 64 16 123-24 176-52 11-95 1-131-30-18-64-11-116 18-156Z" fill="#a66a3f" opacity="0.1"/>
  <path d="M628 691c38-18 80-17 125 1 27 50 27 99 0 149-54 18-102 17-145-5-18-57-11-106 20-145Z" fill="#b17846" opacity="0.11"/>
  <path d="M74 39h652" stroke="#9d6d3d" stroke-width="10" opacity="0.14" stroke-linecap="round"/>
  <path d="M54 966h690" stroke="#9d6d3d" stroke-width="12" opacity="0.14" stroke-linecap="round"/>
</svg>
