<svg xmlns="http://www.w3.org/2000/svg" viewBox="0 0 1280 720" role="img" aria-labelledby="title desc">
  <title id="title">Medieval kitchen</title>
  <desc id="desc">A rustic medieval kitchen with a hearth, herbs, cookware, and a wooden worktable.</desc>
  <defs>
    <linearGradient id="kitchenWall" x1="0" x2="0" y1="0" y2="1">
      <stop offset="0" stop-color="#7f6750"/>
      <stop offset="0.55" stop-color="#9b7a5b"/>
      <stop offset="1" stop-color="#4f3c31"/>
    </linearGradient>
    <linearGradient id="kitchenFloor" x1="0" x2="1" y1="0" y2="1">
      <stop offset="0" stop-color="#78553d"/>
      <stop offset="1" stop-color="#34231a"/>
    </linearGradient>
    <radialGradient id="hearthGlow" cx="0.29" cy="0.5" r="0.34">
      <stop offset="0" stop-color="#ffdb90" stop-opacity="0.95"/>
      <stop offset="0.34" stop-color="#ff964a" stop-opacity="0.7"/>
      <stop offset="1" stop-color="#5a2d1e" stop-opacity="0"/>
    </radialGradient>
  </defs>
  <rect width="1280" height="720" fill="url(#kitchenWall)"/>
  <rect width="1280" height="720" fill="url(#hearthGlow)"/>
  <rect y="505" width="1280" height="215" fill="url(#kitchenFloor)"/>
  <g opacity="0.16" stroke="#564237" stroke-width="2.5">
    <path d="M0 112h1280"/>
    <path d="M0 245h1280"/>
    <path d="M0 376h1280"/>
    <path d="M0 505h1280"/>
    <path d="M150 0v505"/>
    <path d="M392 0v505"/>
    <path d="M640 0v505"/>
    <path d="M885 0v505"/>
    <path d="M1128 0v505"/>
  </g>
  <g transform="translate(72 142)">
    <path d="M0 290h332V76H233l-30-58H126l-22 58H0Z" fill="#57433a" stroke="#342721" stroke-width="8"/>
    <rect x="48" y="138" width="226" height="124" rx="6" fill="#2c1b15"/>
    <path d="M78 248c39-86 86-98 112-67 19 22 42 22 67 1 20-16 40 1 61 50Z" fill="#ff9b4f"/>
    <path d="M101 247c23-44 47-52 60-35 13 16 26 16 41 2 13-12 27-1 44 33Z" fill="#ffe3a1"/>
    <g fill="#222" stroke="#8e8d8a" stroke-width="6">
      <path d="M132 34h34v61c0 14-9 23-17 23s-17-9-17-23Z"/>
      <path d="M206 46h64v52c0 21-12 35-32 35s-32-14-32-35Z"/>
    </g>
  </g>
  <g transform="translate(862 128)">
    <rect width="236" height="225" rx="10" fill="#5f452d"/>
    <path d="M34 37h168" stroke="#d8ba7e" stroke-width="8"/>
    <path d="M34 91h168" stroke="#d8ba7e" stroke-width="8"/>
    <path d="M34 145h168" stroke="#d8ba7e" stroke-width="8"/>
    <g fill="#b77642" stroke="#694225" stroke-width="6">
      <circle cx="74" cy="66" r="24"/>
      <circle cx="150" cy="66" r="24"/>
      <path d="M54 165h46v34H54Z"/>
      <path d="M130 156h52v43h-52Z"/>
    </g>
  </g>
  <g transform="translate(735 52)">
    <path d="M0 0c20 35 24 67 11 101" fill="none" stroke="#365335" stroke-width="9"/>
    <path d="M56 0c19 31 22 63 10 96" fill="none" stroke="#55612a" stroke-width="9"/>
    <path d="M108 0c22 33 26 66 11 102" fill="none" stroke="#5b6f2d" stroke-width="9"/>
    <path d="M-15 0H125" stroke="#6b4c29" stroke-width="10"/>
  </g>
  <g transform="translate(420 450)">
    <path d="M0 58h398l-44 112H36Z" fill="#65412a"/>
    <path d="M34 0h332l32 58H0Z" fill="#87593b"/>
    <ellipse cx="112" cy="31" rx="44" ry="14" fill="#cfb170"/>
    <ellipse cx="224" cy="28" rx="53" ry="16" fill="#cfb170"/>
    <ellipse cx="302" cy="32" rx="34" ry="11" fill="#86633c"/>
    <path d="M92 28h40l9 14H83Z" fill="#784420"/>
    <circle cx="302" cy="31" r="13" fill="#8d4e28"/>
    <rect x="176" y="18" width="95" height="18" rx="9" fill="#c68d44"/>
  </g>
  <g stroke="#3f2b20" stroke-width="14" stroke-linecap="round">
    <path d="M454 506 428 708"/>
    <path d="M735 506 709 708"/>
  </g>
  <g fill="#1a130f" opacity="0.16">
    <ellipse cx="180" cy="654" rx="86" ry="20"/>
    <ellipse cx="615" cy="646" rx="148" ry="24"/>
    <ellipse cx="1018" cy="657" rx="92" ry="20"/>
  </g>
</svg>
